grf
version=1
nRows=5
nColumns=73
inDegrees=yes
endheader
time	ground_force_1_vx	ground_force_1_vy	ground_force_1_vz	ground_force_1_px	ground_force_1_py	ground_force_1_pz	ground_moment_1_mx	ground_moment_1_my	ground_moment_1_mz	ground_force_2_vx	ground_force_2_vy	ground_force_2_vz	ground_force_2_px	ground_force_2_py	ground_force_2_pz	ground_moment_2_mx	ground_moment_2_my	ground_moment_2_mz	ground_force_3_vx	ground_force_3_vy	ground_force_3_vz	ground_force_3_px	ground_force_3_py	ground_force_3_pz	ground_moment_3_mx	ground_moment_3_my	ground_moment_3_mz	ground_force_4_vx	ground_force_4_vy	ground_force_4_vz	ground_force_4_px	ground_force_4_py	ground_force_4_pz	ground_moment_4_mx	ground_moment_4_my	ground_moment_4_mz	ground_force_5_vx	ground_force_5_vy	ground_force_5_vz	ground_force_5_px	ground_force_5_py	ground_force_5_pz	ground_moment_5_mx	ground_moment_5_my	ground_moment_5_mz	ground_force_6_vx	ground_force_6_vy	ground_force_6_vz	ground_force_6_px	ground_force_6_py	ground_force_6_pz	ground_moment_6_mx	ground_moment_6_my	ground_moment_6_mz	ground_force_7_vx	ground_force_7_vy	ground_force_7_vz	ground_force_7_px	ground_force_7_py	ground_force_7_pz	ground_moment_7_mx	ground_moment_7_my	ground_moment_7_mz	ground_force_8_vx	ground_force_8_vy	ground_force_8_vz	ground_force_8_px	ground_force_8_py	ground_force_8_pz	ground_moment_8_mx	ground_moment_8_my	ground_moment_8_mz
3.728000	74.596939	514.334144	7.262149	0.217935	0.000000	0.321631	0.000000	-1.909213	-0.000000	0.000000	0.000000	0.000000	0.000000	0.000000	0.000000	0.000000	0.000000	0.000000	0.000000	0.000000	0.000000	0.000000	0.000000	0.000000	0.000000	0.000000	0.000000	74.596345	514.333233	7.261604	0.215860	0.000000	0.320208	0.000000	-1.908951	-0.000000	0.000000	0.000000	0.000000	0.000000	0.000000	0.000000	0.000000	0.000000	0.000000	73.773616	515.995511	7.345519	0.220430	0.000000	0.321660	0.000000	-1.951729	-0.000000	74.128386	514.605822	7.310245	0.223196	0.000000	0.321599	0.000000	-2.112825	0.000000	0.000000	0.000000	0.000000	0.000000	0.000000	0.000000	0.000000	0.000000	0.000000
3.729000	74.984084	513.975476	7.166545	0.216959	0.000000	0.321703	0.000000	-1.891832	-0.000000	0.000000	0.000000	0.000000	0.000000	0.000000	0.000000	0.000000	0.000000	0.000000	0.000000	0.000000	0.000000	0.000000	0.000000	0.000000	0.000000	0.000000	0.000000	74.983192	513.975720	7.166121	0.214884	0.000000	0.320280	0.000000	-1.891582	-0.000000	0.000000	0.000000	0.000000	0.000000	0.000000	0.000000	0.000000	0.000000	0.000000	74.178538	515.707400	7.243850	0.219445	0.000000	0.321734	0.000000	-1.937267	-0.000000	74.518972	514.278454	7.205205	0.222217	0.000000	0.321668	0.000000	-2.092407	0.000000	0.000000	0.000000	0.000000	0.000000	0.000000	0.000000	0.000000	0.000000	0.000000
3.730000	75.372377	513.601841	7.069824	0.215981	0.000000	0.321777	0.000000	-1.873436	-0.000000	0.000000	0.000000	0.000000	0.000000	0.000000	0.000000	0.000000	0.000000	0.000000	0.000000	0.000000	0.000000	0.000000	0.000000	0.000000	0.000000	0.000000	0.000000	75.371218	513.603075	7.069515	0.213907	0.000000	0.320354	0.000000	-1.873203	-0.000000	0.000000	0.000000	0.000000	0.000000	0.000000	0.000000	0.000000	0.000000	0.000000	74.579651	515.404625	7.142515	0.218457	0.000000	0.321807	0.000000	-1.921934	-0.000000	74.903965	513.940580	7.098349	0.221232	0.000000	0.321736	0.000000	-2.069683	0.000000	0.000000	0.000000	0.000000	0.000000	0.000000	0.000000	0.000000	0.000000	0.000000
3.731000	75.763364	513.213921	6.971791	0.215003	0.000000	0.321853	0.000000	-1.853685	-0.000000	0.000000	0.000000	0.000000	0.000000	0.000000	0.000000	0.000000	0.000000	0.000000	0.000000	0.000000	0.000000	0.000000	0.000000	0.000000	0.000000	0.000000	0.000000	75.761969	513.215995	6.971590	0.212929	0.000000	0.320430	0.000000	-1.853473	-0.000000	0.000000	0.000000	0.000000	0.000000	0.000000	0.000000	0.000000	0.000000	0.000000	74.979242	515.086728	7.040815	0.217469	0.000000	0.321880	0.000000	-1.905737	-0.000000	75.286358	513.592813	6.989409	0.220242	0.000000	0.321802	0.000000	-2.044869	0.000000	0.000000	0.000000	0.000000	0.000000	0.000000	0.000000	0.000000	0.000000	0.000000
3.732000	76.157913	512.811850	6.872496	0.214024	0.000000	0.321930	0.000000	-1.832314	-0.000000	0.000000	0.000000	0.000000	0.000000	0.000000	0.000000	0.000000	0.000000	0.000000	0.000000	0.000000	0.000000	0.000000	0.000000	0.000000	0.000000	0.000000	0.000000	76.156312	512.814630	6.872395	0.211950	0.000000	0.320508	0.000000	-1.832126	-0.000000	0.000000	0.000000	0.000000	0.000000	0.000000	0.000000	0.000000	0.000000	0.000000	75.379479	514.753401	6.938152	0.216479	0.000000	0.321953	0.000000	-1.888485	-0.000000	75.669190	513.235715	6.878252	0.219248	0.000000	0.321865	0.000000	-2.018025	0.000000	0.000000	0.000000	0.000000	0.000000	0.000000	0.000000	0.000000	0.000000	0.000000
